PathFileType	4	(X/Y/Z)	C:/Users/opensim2020/Desktop/walking_exp_matlab/subject01_walking04_straight_02.trc																																																																																																																															
DataRate	CameraRate	NumFrames	NumMarkers	Units	OrigDataRate	OrigDataStartFrame	OrigNumFrames																																																																																																																											
100	100	6	43	mm	100	1418	261																																																																																																																											
Frame#	Time	LFHD			RFHD			LBHD			RBHD			C7			T10			CLAV			STRN			RBAK			LSHO			LUPA			LELB			LFRM			LWRA			LWRB			LFIN			RSHO			RUPA			RELB			RFRM			RWRA			RWRB			RFIN			LASI			RASI			LPSI			RPSI			LTHI			LKNE			LTIB			LANK			LHEE			LTOE			RTHI			RKNE			RTIB			RANK			RHEE			RTOE			*39			*40			*41			*42		
		X1	Y1	Z1	X2	Y2	Z2	X3	Y3	Z3	X4	Y4	Z4	X5	Y5	Z5	X6	Y6	Z6	X7	Y7	Z7	X8	Y8	Z8	X9	Y9	Z9	X10	Y10	Z10	X11	Y11	Z11	X12	Y12	Z12	X13	Y13	Z13	X14	Y14	Z14	X15	Y15	Z15	X16	Y16	Z16	X17	Y17	Z17	X18	Y18	Z18	X19	Y19	Z19	X20	Y20	Z20	X21	Y21	Z21	X22	Y22	Z22	X23	Y23	Z23	X24	Y24	Z24	X25	Y25	Z25	X26	Y26	Z26	X27	Y27	Z27	X28	Y28	Z28	X29	Y29	Z29	X30	Y30	Z30	X31	Y31	Z31	X32	Y32	Z32	X33	Y33	Z33	X34	Y34	Z34	X35	Y35	Z35	X36	Y36	Z36	X37	Y37	Z37	X38	Y38	Z38	X39	Y39	Z39	X40	Y40	Z40	X41	Y41	Z41	X42	Y42	Z42	X43	Y43	Z43
																																																																																																																																		
1	0	-1771.94324	1665.77332	-1397.79895	-1740.17883	1669.69958	-1287.7052	-1884.5094	1620.46228	-1369.52722	-1856.25	1624.83887	-1253.88025	-1924.16858	1434.82202	-1314.30151	-1967.06848	1143.89099	-1284.53467	-1786.73608	1361.04504	-1343.97534	-1749.28796	1205.80701	-1355.75696	-1965.29236	1243.10388	-1219.65039	-1881.10486	1388.85571	-1487.23999	-1920.04163	1216.16101	-1582.40015	-1911.74658	1066.6571	-1615.28735	-1829.97815	993.87671	-1664.39465	-1702.16724	939.16895	-1677.02771	-1749.72974	906.50439	-1692.80664	-1678.55579	878.271	-1725.47717	-1811.91602	1394.57788	-1182.68433	-1874.74963	1206.55994	-1063.79456	-1894.48279	1085.1615	-1054.67126	-1888.86621	967.49487	-1017.52667	-1838.91785	834.71777	-1035.57422	-1877.12122	847.79102	-991.47278	-1857.42371	763.17877	-992.21802	-1841.37634	929.29541	-1432.47327	-1772.125	931.81152	-1226.16528	-1999.4906	954.84491	-1320.77771	-1951.23071	950.49957	-1184.02844	-1971.55688	616.89233	-1461.50977	-2019.64124	488.64059	-1441.01514	-2125.70386	329.82272	-1412.28174	-2192.93433	123.4698	-1348.37659	-2212.35889	106.34445	-1279.62878	-2086.29175	45.13263	-1420.69922	-1757.42688	602.58838	-1173.93799	-1709.33081	461.63367	-1226.38757	-1698.04382	288.59995	-1230.20557	-1646.29822	91.11732	-1297.49304	-1682.18323	40.2895	-1349.14905	-1504.75391	101.4663	-1312.19238	-1755.31628	1703.91589	-1307.59497	-1973.03064	1023.75452	3102.06982	-2012.48499	1021.92499	3140.59766	NaN	NaN	NaN
2	0.01	-1762.8064	1664.77356	-1398.5238	-1731.26526	1669.1272	-1288.34521	-1875.48474	1619.3446	-1370.67249	-1847.40955	1623.76453	-1254.74011	-1914.97986	1433.49536	-1315.69556	-1957.23035	1142.40466	-1286.6239	-1777.12451	1360.14551	-1344.81238	-1739.33472	1204.85999	-1356.57788	-1956.06384	1241.39514	-1221.65393	-1870.8009	1387.79578	-1488.41101	-1909.75098	1215.21399	-1583.57446	-1901.62378	1065.27234	-1616.8103	-1819.11572	993.33746	-1665.43689	-1690.91431	939.78876	-1677.93982	-1738.19128	906.79736	-1693.9834	-1666.63806	879.1886	-1726.40784	-1803.25562	1393.27246	-1183.36731	-1866.62195	1205.17371	-1065.20618	-1886.46985	1083.80762	-1056.03943	-1881.54175	966.16211	-1018.92493	-1831.9812	833.12537	-1036.48596	-1870.45581	846.42633	-992.68188	-1851.09717	761.64648	-993.38165	-1831.11584	928.34851	-1434.89172	-1761.73364	930.24707	-1228.24768	-1989.05908	953.74817	-1322.68884	-1940.96167	948.91187	-1186.01782	-1963.36328	616.62012	-1464.29993	-2011.78845	488.49252	-1443.43591	-2119.9856	331.08167	-1413.98022	-2191.47192	127.00564	-1350.13416	-2210.55054	110.01953	-1280.49854	-2086.09912	45.18679	-1420.71899	-1745.16052	601.81299	-1176.92773	-1698.34863	460.57425	-1229.17285	-1688.59656	287.04657	-1232.22595	-1638.49133	88.8866	-1298.92041	-1674.13647	37.97255	-1350.66211	-1496.65479	98.35296	-1313.00098	-1746.74133	1703.04199	-1308.33887	-1973.07007	1023.29633	3101.85083	-2012.46741	1021.97522	3140.61475	NaN	NaN	NaN
3	0.02	-1753.78015	1663.80261	-1399.15186	-1722.75122	1668.13818	-1288.83203	-1866.39844	1618.17456	-1371.6062	-1838.77234	1622.80029	-1255.78076	-1905.56067	1432.00049	-1316.67664	-1947.08337	1140.72852	-1288.39636	-1767.34814	1359.1073	-1345.35449	-1729.20178	1203.93335	-1357.2406	-1946.62842	1239.50269	-1223.47876	-1860.57996	1386.85522	-1489.40857	-1899.2738	1214.17773	-1584.51929	-1891.47729	1064.28931	-1617.8512	-1808.50464	992.74603	-1666.29761	-1679.92078	940.11298	-1678.65674	-1726.81812	906.55469	-1694.38855	-1655.0542	879.62061	-1726.9408	-1794.41724	1391.81506	-1184.03296	-1858.18958	1203.34399	-1066.76245	-1878.20679	1082.24451	-1057.69653	-1873.82642	964.69427	-1020.40521	-1824.651	831.44135	-1037.54614	-1863.42175	844.96851	-993.90826	-1844.22266	759.98285	-994.62341	-1820.323	927.17059	-1436.95142	-1751.04968	928.64191	-1230.2749	-1978.29114	952.62689	-1324.42554	-1930.43933	947.27716	-1187.93188	-1954.2998	615.69965	-1466.65417	-2003.41809	487.96326	-1445.75952	-2115.96509	334.90845	-1417.98523	-2189.91724	130.80109	-1351.9082	-2208.65039	113.95423	-1281.38489	-2085.88623	45.1314	-1420.71448	-1732.11267	601.0437	-1180.18481	-1686.94873	459.47086	-1231.13037	-1679.97351	285.0668	-1233.79163	-1632.52942	86.04503	-1300.13232	-1668.89441	36.09749	-1351.81018	-1490.63367	94.02637	-1313.50134	-1737.79163	1702.0238	-1308.79187	-1973.00317	1023.72736	3101.91797	-2012.50781	1021.86041	3140.65088	NaN	NaN	NaN
4	0.03	-1744.65125	1662.69397	-1399.66821	-1713.87	1667.47632	-1289.40918	-1857.17993	1616.88928	-1372.44275	-1829.84534	1621.6604	-1256.33167	-1896.27917	1430.5625	-1317.70007	-1936.72693	1139.04883	-1290.1759	-1757.48596	1358.23376	-1345.8656	-1718.76587	1203.25549	-1358.08545	-1937.10913	1237.61145	-1225.35205	-1850.17676	1385.80347	-1490.19788	-1888.74817	1213.13501	-1585.18213	-1881.526	1063.27563	-1618.71985	-1798.08875	992.12427	-1666.98633	-1669.24414	940.12012	-1679.13184	-1715.86487	906.27057	-1694.8811	-1643.94739	879.87402	-1727.41467	-1785.64233	1390.3656	-1184.45898	-1849.85291	1201.6095	-1068.06848	-1869.80249	1080.72839	-1059.00122	-1865.80713	963.11011	-1021.82983	-1817.05603	829.74371	-1038.67639	-1855.9303	843.34735	-995.17615	-1837.23718	758.42194	-995.67267	-1809.23975	925.99341	-1439.13562	-1739.92224	927.06323	-1232.42358	-1967.18152	951.51105	-1326.146	-1919.52612	945.54846	-1189.82654	-1944.9054	614.9657	-1469.20764	-1994.83813	487.78171	-1448.41162	-2107.4834	333.66641	-1417.4032	-2188.39697	135.40913	-1354.36414	-2206.78516	118.70156	-1282.95313	-2085.57813	45.1296	-1420.76611	-1718.68018	600.23254	-1183.66309	-1675.78052	457.97009	-1233.25513	-1672.05945	282.34271	-1235.34448	-1627.89648	83.05643	-1301.33972	-1666.3147	35.35789	-1352.5177	-1486.26355	88.57404	-1313.88538	-1727.82568	1701.1261	-1309.25488	-1973.11096	1023.29559	3101.84326	-2012.49341	1021.97601	3140.58789	NaN	NaN	NaN
5	0.04	-1734.38477	1661.37744	-1399.50244	-1705.12366	1666.54163	-1289.64319	-1848.09705	1615.68103	-1373.35535	-1821.36816	1620.77173	-1257.26599	-1887.052	1429.13123	-1318.50391	-1926.10632	1137.2439	-1291.6875	-1747.55823	1357.29688	-1346.13745	-1708.33276	1202.41284	-1358.44983	-1927.3606	1235.57813	-1226.99939	-1839.74329	1384.7522	-1490.74463	-1877.35925	1211.94055	-1585.14221	-1871.53796	1062.32849	-1619.37695	-1787.65393	991.2113	-1667.25244	-1658.80359	939.74823	-1679.25378	-1705.31165	905.77704	-1695.25562	-1633.16309	879.51843	-1727.42297	-1776.69275	1389.21155	-1184.84277	-1841.2832	1199.78931	-1069.07312	-1861.0354	1078.98425	-1060.29138	-1857.46277	961.43433	-1023.30688	-1809.04553	827.87793	-1039.86877	-1848.01086	841.65521	-996.51978	-1829.31177	756.47375	-997.07928	-1797.82202	924.86548	-1441.2804	-1728.62256	925.45227	-1234.3313	-1955.80615	950.41638	-1327.75708	-1908.34448	943.90991	-1191.59387	-1935.3075	614.4516	-1471.97046	-1985.80432	487.43991	-1451.04626	-2101.97119	336.58676	-1420.74927	-2186.15869	139.35733	-1356.16528	-2204.45068	123.43514	-1284.58167	-2085.04102	45.03597	-1420.77234	-1705.3562	599.26031	-1187.08459	-1665.26831	455.95407	-1235.19312	-1665.06482	279.89932	-1237.34094	-1624.67639	80.81042	-1303.82947	-1664.7688	35.65565	-1355.08386	-1482.81604	79.87624	-1313.60327	-1719.08643	1700.24084	-1309.77649	-1972.89783	1023.78717	3102.06104	-2012.48462	1021.94891	3140.56812	NaN	NaN	NaN
6	0.05	-1725.1145	1660.58386	-1399.87842	-1696.44104	1666.22644	-1289.93079	-1838.92749	1614.60791	-1374.17871	-1814.30042	1620.27039	-1258.54382	-1877.88574	1428.0614	-1318.98633	-1915.2395	1135.58179	-1293.13867	-1737.49646	1356.46826	-1346.18005	-1697.73975	1201.93237	-1358.72192	-1917.50769	1233.57129	-1228.49158	-1828.39832	1383.71326	-1490.64001	-1866.67261	1210.91455	-1585.47437	-1861.5448	1061.32056	-1619.80286	-1777.51868	990.31989	-1667.46729	-1648.67163	939.05609	-1679.14111	-1695.03296	904.95721	-1695.2063	-1622.74634	878.82922	-1727.15063	-1767.69531	1387.65942	-1184.80566	-1832.93665	1198.04968	-1069.88525	-1851.99072	1077.10767	-1061.72766	-1848.73816	959.63605	-1024.66199	-1800.55444	826.02704	-1040.96033	-1839.6665	839.87665	-997.89929	-1821.46069	754.79706	-998.18829	-1786.06213	923.68549	-1443.08484	-1717.40552	924.10736	-1236.31104	-1944.33484	949.45178	-1329.33936	-1896.88611	942.41791	-1192.81616	-1924.44128	613.54675	-1474.02051	-1976.49878	487.1405	-1454.01306	-2096.27856	339.91064	-1424.69202	-2183.74121	143.70903	-1358.56311	-2201.93799	128.57222	-1286.80688	-2084.87988	45.22128	-1420.99866	-1692.87878	598.89795	-1189.7605	-1655.34253	453.91586	-1236.37317	-1658.51416	277.88766	-1240.28516	-1621.2865	80.94665	-1306.13977	-1663.09338	37.00762	-1357.47498	-1479.78088	71.6825	-1312.83472	-1710.43396	1699.58093	-1310.1012	-1973.05164	1023.44012	3101.95142	-2012.56262	1022.03912	3140.77661	NaN	NaN	NaN
